<mxfile host="Electron" agent="Mozilla/5.0 (Windows NT 10.0; Win64; x64) AppleWebKit/537.36 (KHTML, like Gecko) draw.io/24.7.17 Chrome/128.0.6613.36 Electron/32.0.1 Safari/537.36" version="24.7.17">
  <diagram name="Page-1" id="sZRUtUqvT3XPqiy95TZb">
    <mxGraphModel dx="989" dy="582" grid="0" gridSize="10" guides="1" tooltips="1" connect="1" arrows="1" fold="1" page="1" pageScale="1" pageWidth="827" pageHeight="1169" math="0" shadow="0">
      <root>
        <mxCell id="0" />
        <mxCell id="1" parent="0" />
        <mxCell id="zKMlolxRR7rXuWX8nKz6-6" style="edgeStyle=orthogonalEdgeStyle;rounded=0;orthogonalLoop=1;jettySize=auto;html=1;exitX=1;exitY=0.5;exitDx=0;exitDy=0;entryX=0;entryY=0.5;entryDx=0;entryDy=0;" edge="1" parent="1" source="zKMlolxRR7rXuWX8nKz6-1" target="zKMlolxRR7rXuWX8nKz6-3">
          <mxGeometry relative="1" as="geometry" />
        </mxCell>
        <mxCell id="zKMlolxRR7rXuWX8nKz6-1" value="TTS model generates speech &amp;amp; sentence flow" style="rounded=1;whiteSpace=wrap;html=1;fillColor=#fff2cc;strokeColor=#d6b656;fontStyle=1" vertex="1" parent="1">
          <mxGeometry x="320" y="120" width="120" height="80" as="geometry" />
        </mxCell>
        <mxCell id="zKMlolxRR7rXuWX8nKz6-5" style="edgeStyle=orthogonalEdgeStyle;rounded=0;orthogonalLoop=1;jettySize=auto;html=1;exitX=1;exitY=0.5;exitDx=0;exitDy=0;entryX=0;entryY=0.5;entryDx=0;entryDy=0;" edge="1" parent="1" source="zKMlolxRR7rXuWX8nKz6-2" target="zKMlolxRR7rXuWX8nKz6-1">
          <mxGeometry relative="1" as="geometry" />
        </mxCell>
        <mxCell id="zKMlolxRR7rXuWX8nKz6-2" value="Automatic text processing/ splitting" style="rounded=1;whiteSpace=wrap;html=1;fontStyle=1;fillColor=#dae8fc;strokeColor=#6c8ebf;" vertex="1" parent="1">
          <mxGeometry x="160" y="130" width="120" height="60" as="geometry" />
        </mxCell>
        <mxCell id="zKMlolxRR7rXuWX8nKz6-7" style="edgeStyle=orthogonalEdgeStyle;rounded=0;orthogonalLoop=1;jettySize=auto;html=1;exitX=1;exitY=0.5;exitDx=0;exitDy=0;entryX=0;entryY=0.5;entryDx=0;entryDy=0;" edge="1" parent="1" source="zKMlolxRR7rXuWX8nKz6-3" target="zKMlolxRR7rXuWX8nKz6-4">
          <mxGeometry relative="1" as="geometry" />
        </mxCell>
        <mxCell id="zKMlolxRR7rXuWX8nKz6-3" value="S2S model improves quality/ voice accuracy" style="rounded=1;whiteSpace=wrap;html=1;fillColor=#fff2cc;strokeColor=#d6b656;fontStyle=1" vertex="1" parent="1">
          <mxGeometry x="540" y="120" width="120" height="80" as="geometry" />
        </mxCell>
        <mxCell id="zKMlolxRR7rXuWX8nKz6-4" value="Audio output" style="rounded=1;whiteSpace=wrap;html=1;fontStyle=1" vertex="1" parent="1">
          <mxGeometry x="700" y="130" width="80" height="60" as="geometry" />
        </mxCell>
        <mxCell id="zKMlolxRR7rXuWX8nKz6-8" value="Generated audio passed" style="text;html=1;align=center;verticalAlign=middle;whiteSpace=wrap;rounded=0;fontStyle=1;fontFamily=Helvetica;" vertex="1" parent="1">
          <mxGeometry x="450" y="120" width="80" height="30" as="geometry" />
        </mxCell>
        <mxCell id="zKMlolxRR7rXuWX8nKz6-12" style="edgeStyle=orthogonalEdgeStyle;rounded=0;orthogonalLoop=1;jettySize=auto;html=1;entryX=0;entryY=0.5;entryDx=0;entryDy=0;" edge="1" parent="1" source="zKMlolxRR7rXuWX8nKz6-9" target="zKMlolxRR7rXuWX8nKz6-2">
          <mxGeometry relative="1" as="geometry" />
        </mxCell>
        <mxCell id="zKMlolxRR7rXuWX8nKz6-9" value="Text input" style="rounded=1;whiteSpace=wrap;html=1;fontStyle=1;fillColor=default;" vertex="1" parent="1">
          <mxGeometry x="40" y="130" width="80" height="60" as="geometry" />
        </mxCell>
      </root>
    </mxGraphModel>
  </diagram>
</mxfile>
